<svg width="32" height="30" viewBox="0 0 32 30" fill="none" xmlns="http://www.w3.org/2000/svg">
<path fill-rule="evenodd" clip-rule="evenodd" d="M9.40364 0.0897495C11.1098 0.0163181 11.6538 0 16 0C20.3462 0 20.8902 0.0176779 22.5949 0.0897495C24.2996 0.161821 25.4633 0.416111 26.4815 0.784628C27.5476 1.1613 28.5149 1.75011 29.3149 2.51163C30.1295 3.25818 30.7578 4.16111 31.1593 5.15924C31.5549 6.11112 31.8255 7.199 31.904 8.79001C31.9825 10.3878 32 10.8964 32 14.9582C32 19.0215 31.9811 19.53 31.904 21.1251C31.8269 22.7161 31.5549 23.804 31.1593 24.7559C30.7578 25.7542 30.1284 26.6586 29.3149 27.4062C28.5149 28.1677 27.5476 28.7552 26.4815 29.1305C25.4633 29.5004 24.2996 29.7533 22.5978 29.8267C20.8902 29.9002 20.3462 29.9165 16 29.9165C11.6538 29.9165 11.1098 29.8988 9.40364 29.8267C7.70182 29.7547 6.53818 29.5004 5.52 29.1305C4.45225 28.7551 3.48483 28.1667 2.68509 27.4062C1.8711 26.6592 1.24119 25.7552 0.839273 24.7573C0.445091 23.8054 0.174545 22.7175 0.096 21.1265C0.0174545 19.5287 0 19.0201 0 14.9582C0 10.895 0.0189091 10.3865 0.096 8.79273C0.173091 7.199 0.445091 6.11112 0.839273 5.15924C1.24178 4.16122 1.87217 3.25724 2.68655 2.51027C3.48515 1.74944 4.4516 1.16055 5.51855 0.784628C6.53673 0.416111 7.70036 0.163181 9.40218 0.0897495H9.40364ZM22.4655 2.78223C20.7782 2.71016 20.272 2.6952 16 2.6952C11.728 2.6952 11.2218 2.71016 9.53455 2.78223C7.97382 2.84887 7.12727 3.09228 6.56291 3.29761C5.81673 3.56958 5.28291 3.89186 4.72291 4.4154C4.19207 4.89822 3.78354 5.48598 3.52727 6.1356C3.30764 6.66322 3.04727 7.45465 2.976 8.91376C2.89891 10.4912 2.88291 10.9644 2.88291 14.9582C2.88291 18.9521 2.89891 19.4253 2.976 21.0027C3.04727 22.4618 3.30764 23.2533 3.52727 23.7809C3.78327 24.4295 4.192 25.0183 4.72291 25.5011C5.23927 25.9974 5.86909 26.3795 6.56291 26.6189C7.12727 26.8242 7.97382 27.0676 9.53455 27.1343C11.2218 27.2063 11.7265 27.2213 16 27.2213C20.2735 27.2213 20.7782 27.2063 22.4655 27.1343C24.0262 27.0676 24.8727 26.8242 25.4371 26.6189C26.1833 26.3469 26.7171 26.0246 27.2771 25.5011C27.808 25.0183 28.2167 24.4295 28.4727 23.7809C28.6924 23.2533 28.9527 22.4618 29.024 21.0027C29.1011 19.4253 29.1171 18.9521 29.1171 14.9582C29.1171 10.9644 29.1011 10.4912 29.024 8.91376C28.9527 7.45465 28.6924 6.66322 28.4727 6.1356C28.1818 5.438 27.8371 4.93894 27.2771 4.4154C26.7606 3.91916 26.1319 3.53723 25.4371 3.29761C24.8727 3.09228 24.0262 2.84887 22.4655 2.78223ZM13.9564 19.5695C15.0977 20.0136 16.3686 20.0736 17.5519 19.7391C18.7352 19.4046 19.7577 18.6963 20.4445 17.7354C21.1314 16.7744 21.4401 15.6203 21.3179 14.4702C21.1957 13.3201 20.6502 12.2453 19.7745 11.4295C19.2163 10.9079 18.5414 10.5086 17.7983 10.2602C17.0552 10.0118 16.2624 9.92053 15.4771 9.99295C14.6917 10.0654 13.9333 10.2997 13.2564 10.679C12.5796 11.0583 12.0011 11.5733 11.5626 12.1867C11.1242 12.8001 10.8366 13.4968 10.7208 14.2266C10.6049 14.9564 10.6635 15.7011 10.8924 16.4072C11.1214 17.1132 11.5149 17.7631 12.0447 18.3099C12.5745 18.8567 13.2274 19.2869 13.9564 19.5695ZM10.1847 9.5216C10.9484 8.80765 11.855 8.24132 12.8528 7.85493C13.8506 7.46854 14.92 7.26967 16 7.26967C17.08 7.26967 18.1494 7.46854 19.1472 7.85493C20.145 8.24132 21.0516 8.80765 21.8153 9.5216C22.5789 10.2356 23.1847 11.0831 23.598 12.016C24.0113 12.9488 24.224 13.9486 24.224 14.9582C24.224 15.9679 24.0113 16.9677 23.598 17.9005C23.1847 18.8334 22.5789 19.6809 21.8153 20.3949C20.273 21.8368 18.1812 22.6468 16 22.6468C13.8188 22.6468 11.727 21.8368 10.1847 20.3949C8.64242 18.953 7.77596 16.9974 7.77596 14.9582C7.77596 12.9191 8.64242 10.9635 10.1847 9.5216ZM26.048 8.41469C26.2372 8.2478 26.3887 8.0471 26.4935 7.82449C26.5983 7.60187 26.6543 7.36186 26.6581 7.11867C26.6619 6.87548 26.6134 6.63405 26.5156 6.40867C26.4178 6.18329 26.2726 5.97855 26.0887 5.80657C25.9047 5.63459 25.6857 5.49887 25.4446 5.40743C25.2036 5.316 24.9453 5.27071 24.6852 5.27425C24.4251 5.2778 24.1683 5.3301 23.9302 5.42807C23.6921 5.52604 23.4774 5.66767 23.2989 5.84459C22.9517 6.18867 22.7616 6.64571 22.769 7.11867C22.7764 7.59163 22.9806 8.04329 23.3384 8.37776C23.6962 8.71224 24.1793 8.90319 24.6852 8.91008C25.1911 8.91698 25.68 8.73927 26.048 8.41469Z" fill="white"/>
</svg>
