<svg width="89" height="89" viewBox="0 0 89 89" fill="none" xmlns="http://www.w3.org/2000/svg">
<rect width="89" height="89" fill="#F8BC24"/>
<path d="M21.2017 58V28.9091H41.4858V34.6193H28.233V40.5852H40.4489V46.3097H28.233V52.2898H41.4858V58H21.2017ZM52.8352 45.5568V58H45.8892V36.1818H52.4943V40.1875H52.7358C53.2188 38.8523 54.0426 37.8059 55.2074 37.0483C56.3722 36.2812 57.7595 35.8977 59.3693 35.8977C60.9034 35.8977 62.2339 36.2434 63.3608 36.9347C64.4972 37.6165 65.3778 38.5729 66.0028 39.804C66.6373 41.0256 66.9498 42.4555 66.9403 44.0938V58H59.9943V45.4574C60.0038 44.2453 59.696 43.2983 59.071 42.6165C58.4555 41.9347 57.5985 41.5938 56.5 41.5938C55.7708 41.5938 55.1269 41.7547 54.5682 42.0767C54.0189 42.3892 53.5928 42.839 53.2898 43.4261C52.9962 44.0133 52.8447 44.7235 52.8352 45.5568Z" fill="#4E66E7"/>
</svg>
